<?xml version="1.0" encoding="UTF-8" standalone="no"?>
<svg xmlns="http://www.w3.org/2000/svg" width="132" height="191.46" viewBox="0 0 132 191.46354">
  <path fill="#0c2c56" d="M1.7773.95703c-.84108-.03636-1.085.78767-.0507 3.0391 7.6602 16.652 23.574 27.012 41.468 31.611-10.298 8.929-16.369 14.19-17.72 25.493-8.81.654-18.233 7.1-21.219 13.082-3.4 6.811 1.6365 6.947 5.0545 4.601 4.3735-2.992 10.574-4.142 15.876-3.912l-.01 8.551c-8.806.656-17.478 7.1-20.461 13.082-3.4 6.806 1.6366 6.946 5.0526 4.606 4.3774-2.996 10.117-4.606 15.418-4.378v25.778c0 10.12-5.059 15.18-8.059 17.95-2.982 2.76-1.337 5.64 3 3.9 9.096-3.64 18.546-12.26 20.699-25.4 3.481.44 7.657.48 10.594.01v3.54c0 10.12-5.063 15.18-8.053 17.95-.046.04-.076.08-.123.13-9.68.84-18.34 4.11-25.236 9.47-15.696 12.25-18.11 35.27-15.696 40.36.148.33 8.842-28.45 34.661-31.51 14.958-1.76 33.321 2.71 48.965 16.29 9.662-16.11 26.012-25.31 45.102-28.56-6.45-7.33-8.05-10.55-8.29-18.84v-75.478c.47-6.444 2.08-8.515 6.76-12.888-10.44-3.911-22.41-16.104-28.85-28.993-32.214 16.569-68.116 16.569-95.256-7.3629C4.0556 1.88943 2.6182.99353 1.777.95713zm91.057 32.959 9.206 9.199v22.612c-10.326 3.115-25.22 3.001-34.513-.332v-2.948c0-8.007.671-18.151 7.256-24.549 6.289-.67 12.401-1.988 18.051-3.982zm-39.23 3.734c4.422.574 8.882.819 13.308.741-4.852 4.234-8.997 8.168-11.783 12.742-3.689-1.224-7.073-1.947-10.363-2.129 2.127-4.275 5.171-8.265 8.838-11.354zm-8.62 17.748c2.706-.017 5.339.402 7.67 1.235-.731 2.339-1.197 4.845-1.183 7.689l-.045 47.818c-2.596.56-6.585.63-10.141.29v-49.983c0-2.198.348-4.527.979-6.885.909-.103 1.819-.158 2.72-.164zm22.543 17.823c9.293 3.329 24.187 3.443 34.513.33v21.972c-10.326-3.113-25.22-2.999-34.513.332v-22.634zm16.869 27.879c6.177-.06 12.482.69 17.644 2.25v32.74c-6.445 1.83-14.264 6.43-21.169 12.42-9.991-4.95-19.838-7.51-29.031-8.03 8.254-5.55 15.687-15.33 15.687-28.33v-8.46c4.647-1.67 10.693-2.54 16.869-2.59z"/>
</svg>