<?xml version="1.0" encoding="UTF-8" standalone="no"?>
<!-- Created with Inkscape (http://www.inkscape.org/) -->

<svg
   xmlns:dc="http://purl.org/dc/elements/1.1/"
   xmlns:cc="http://creativecommons.org/ns#"
   xmlns:rdf="http://www.w3.org/1999/02/22-rdf-syntax-ns#"
   xmlns:svg="http://www.w3.org/2000/svg"
   xmlns="http://www.w3.org/2000/svg"
   xmlns:sodipodi="http://sodipodi.sourceforge.net/DTD/sodipodi-0.dtd"
   xmlns:inkscape="http://www.inkscape.org/namespaces/inkscape"
   width="137.40417mm"
   height="48.947922mm"
   viewBox="0 0 137.40418 48.947922"
   version="1.1"
   id="svg8"
   inkscape:version="0.92.5 (2060ec1f9f, 2020-04-08)"
   sodipodi:docname="Angels curved wordmark.svg">
  <defs
     id="defs2">
    <radialGradient
       id="radialGradient40"
       spreadMethod="pad"
       gradientTransform="matrix(314.54413,0,0,-478.65411,198,306)"
       gradientUnits="userSpaceOnUse"
       r="1"
       cy="0"
       cx="0"
       fy="0"
       fx="0">
      <stop
         id="stop32"
         offset="0"
         style="stop-opacity:1;stop-color:#c82146" />
      <stop
         id="stop34"
         offset="0.187845"
         style="stop-opacity:1;stop-color:#c82146" />
      <stop
         id="stop36"
         offset="0.646409"
         style="stop-opacity:1;stop-color:#8c1532" />
      <stop
         id="stop38"
         offset="1"
         style="stop-opacity:1;stop-color:#8c1532" />
    </radialGradient>
    <clipPath
       id="clipPath50"
       clipPathUnits="userSpaceOnUse">
      <path
         inkscape:connector-curvature="0"
         id="path48"
         d="M 0,0 H 396 V 612 H 0 Z" />
    </clipPath>
    <clipPath
       id="clipPath64"
       clipPathUnits="userSpaceOnUse">
      <path
         inkscape:connector-curvature="0"
         id="path62"
         d="M 61.52,507.495 H 325.479 V 598.68 H 61.52 Z" />
    </clipPath>
  </defs>
  <sodipodi:namedview
     id="base"
     pagecolor="#ffffff"
     bordercolor="#666666"
     borderopacity="1.0"
     inkscape:pageopacity="0.0"
     inkscape:pageshadow="2"
     inkscape:zoom="1.979899"
     inkscape:cx="280.91751"
     inkscape:cy="111.52404"
     inkscape:document-units="mm"
     inkscape:current-layer="g10"
     showgrid="false"
     inkscape:pagecheckerboard="true"
     fit-margin-top="0"
     fit-margin-left="0"
     fit-margin-right="0"
     fit-margin-bottom="0"
     inkscape:window-width="1920"
     inkscape:window-height="1017"
     inkscape:window-x="1912"
     inkscape:window-y="70"
     inkscape:window-maximized="1" />
  <metadata
     id="metadata5">
    <rdf:RDF>
      <cc:Work
         rdf:about="">
        <dc:format>image/svg+xml</dc:format>
        <dc:type
           rdf:resource="http://purl.org/dc/dcmitype/StillImage" />
        <dc:title></dc:title>
      </cc:Work>
    </rdf:RDF>
  </metadata>
  <g
     inkscape:label="Layer 1"
     inkscape:groupmode="layer"
     id="layer1"
     transform="translate(-11.315178,-134.9547)">
    <g
       transform="matrix(0.35277777,0,0,-0.35277777,15.591491,181.89809)"
       inkscape:label="ink_ext_XXXXXX"
       id="g8">
      <g
         transform="scale(0.1)"
         id="g10">
        <path
           id="path26-2"
           style="fill:#979c9d;fill-opacity:1;fill-rule:nonzero;stroke:none;stroke-width:0.67362392"
           d="m 3598.2509,775.88738 -1.3016,1.50091 c -26.8418,31.38796 -47.3073,60.01006 -58.35,75.4386 -2.1532,3.00837 -3.9809,5.5645 -5.4625,7.58974 -0.069,0.81272 -0.1177,1.92693 -0.1524,3.32952 26.3573,-7.60284 57.0831,-16.22814 74.0384,-20.97992 l 50.8659,-36.11353 z m 123.6789,-165.3357 c -12.8913,15.95287 -25.7411,33.46562 -37.0885,48.90727 -7.8857,10.7554 -14.9129,20.32451 -21.0193,28.10432 0.1593,3.30986 0.6231,7.72082 1.4539,11.35839 l 20.8532,87.68836 36.9084,-42.16959 19.3923,3.94562 -24.9725,271.74935 -41.8933,12.7938 c -1.2462,0.3801 -125.2227,38.2567 -169.2345,49.1825 -14.9613,3.7031 -38.0507,8.1272 -63.0718,8.1272 -78.3516,0 -128.9752,-44.5356 -128.9752,-113.47248 V 869.86776 c 0,-28.01256 12.1644,-74.54068 46.4281,-113.4594 10.5927,-12.03347 24.3494,-29.30373 37.753,-46.10865 15.1553,-19.02022 28.462,-35.71372 38.7985,-46.98035 0.7408,-4.08326 1.4609,-11.6009 1.1008,-18.08954 l -8.1072,-71.15739 70.6251,7.55041 c 0.8032,-0.46141 2.0701,-1.39801 3.5517,-3.2902 17.253,-22.01549 28.3027,-38.05487 36.3753,-49.77309 2.167,-3.14666 4.0848,-5.92432 5.8226,-8.39525 l 1.5924,-2.24284 c 5.5663,-7.81913 5.8917,-8.28972 5.8917,-16.0656 v -69.27702 c -36.0153,12.57092 -81.9517,28.83839 -106.4327,37.53579 l -144.6359,142.00349 37.9539,-317.83246 36.2922,-12.49095 c 1.6408,-0.56366 165.2813,-56.91649 205.4645,-69.58703 15.4944,-4.88745 32.9897,-7.47832 50.5889,-7.47832 78.4486,0 135.3793,46.98232 135.3793,111.70484 v 188.26879 c 0,40.07815 -17.1561,69.16495 -46.7949,105.84869 z m -1991.3027,333.21445 -3.2678,2.32673 c -3.8217,2.80519 -7.3941,6.895 -9.1388,9.35937 v 15.59894 z m 28.1366,-61.83868 0.9277,-1.25841 c 1.5854,-2.55613 3.6209,-7.36034 3.6832,-9.19551 V 705.22022 h -41.9486 c -0.055,4.20779 -0.055,8.25827 -0.055,11.4436 v 125.72226 c 2.4093,3.79487 7.4911,10.52602 12.7805,15.76936 z m -40.5432,217.32345 h 148.9145 l 118.2509,-67.1803 -40.5501,271.5331 h -273.2233 c -81.0448,0 -171.3531,-62.1337 -171.3531,-151.2967 V 951.45418 c -1.4054,-3.82109 -7.2765,-13.97351 -13.9298,-21.26831 l -42.8971,-46.4167 50.8728,-38.53202 c 2.5824,-1.9597 6.2726,-6.29856 8.0519,-8.91368 V 646.2064 c 0,-50.02869 50.9282,-143.35955 148.2913,-143.35955 h 342.2146 c 0,0 0.2562,345.51009 0.2562,379.33621 0,33.81956 77.2023,98.04396 77.2023,98.04396 l -352.1011,-7.07196 z m 700.2282,-24.4798 c 31.709,-2.2612 65.7304,-4.6928 80.2694,-5.7218 2.0632,-1.1274 4.971,-2.8773 7.1449,-4.5028 l 34.5545,-26.1708 -66.2219,-26.4068 -55.7469,4.8698 z m 100.9287,-400.49971 c -14.3036,1.08144 -63.5218,6.07573 -100.9287,9.94269 v 129.68754 l 41.5125,-2.34639 106.2873,-68.6157 v 275.87197 l 40.8825,-30.95541 v 277.93651 l -484.9119,41.2848 85.6004,-111.4407 V 950.26787 c -1.9524,-2.22842 -5.0056,-5.2499 -7.5811,-7.0654 l -67.8489,-46.16109 66.0696,-48.41572 c 2.5755,-1.88105 6.231,-5.78078 8.3219,-8.41556 V 592.82328 l -86.4451,-90.97987 484.6073,-37.71209 31.5636,301.78716 -115.4262,-91.0441 c -0.7062,-0.3015 -1.4747,-0.56366 -1.7032,-0.60299 z m 494.0992,-84.71209 c 0.2492,46.84204 0.6438,125.85923 0.7408,156.7884 l 91.4229,42.5825 -88.529,56.77885 c -1.0385,0.79961 -2.7485,2.52336 -3.877,3.88008 v 261.70177 l 44.2194,77.2869 -322.4414,72.4368 62.6148,-127.0462 V 878.69624 l -83.4195,-29.65766 72.7783,-64.46691 c 3.9532,-3.99149 11.6382,-14.09148 11.6382,-21.60257 V 517.66585 l -48.332,-79.33899 428.5004,-97.41411 40.9447,342.79666 -119.1094,-112.73711 c -12.109,1.82796 -44.4134,8.71444 -87.1512,18.587 z m -1936.262,537.2716 -14.6013,34.8355 3.704,25.7317 11.3335,-24.3881 z m -1.987,-595.76241 -17.3568,-56.77033 -19.0046,37.61967 -0.7685,109.33682 c 20.8116,-51.18158 33.2598,-81.33802 37.1715,-90.04066 z m 308.7679,755.40911 -309.0794,-39.3906 0.4915,3.4344 -302.55754,-55.1141 41.85861,-83.9853 V 854.38679 c -1.93854,-2.75276 -6.06486,-7.46521 -9.90732,-10.30973 l -70.41053,-50.49339 73.85836,-45.87926 c 1.30851,-0.81927 3.53783,-2.64789 5.40714,-4.37819 V 491.86074 c -0.52617,-1.12601 -1.39159,-2.69836 -2.1047,-3.63495 l -2.00777,-2.62167 -79.32089,-120.04176 349.08944,66.27652 -3.3024,6.55417 277.6473,34.5733 -54.9991,72.09597 c -1.5024,3.57203 -3.2055,8.59253 -3.9256,11.10933 v 242.85199 c 0,6.35099 9.485,22.33664 16.8792,30.40483 l 42.544,45.82682 -49.7166,38.85318 c -4.0294,3.146 -8.1903,7.41933 -10.7104,10.34249 0.3461,42.77913 2.9355,218.46394 2.9355,256.64194 0,38.1781 87.3312,105.3847 87.3312,105.3847 z M 324.05111,473.94227 c 9.03013,28.32847 18.53867,58.13753 28.53184,89.41276 7.37476,-25.58686 14.24411,-49.4172 20.63437,-71.58343 z M 659.70857,353.01766 c -6.18256,19.02744 -31.61205,103.65566 -52.04979,171.66772 -11.99126,39.91429 -22.37629,74.48824 -25.87951,85.80075 -0.25616,3.59825 1.94546,14.16358 5.62177,22.16624 l 33.04517,55.65807 -60.04626,22.21867 c -3.64307,3.00837 -13.48462,12.78065 -20.77838,35.14351 -3.87846,11.88928 -12.21072,38.70898 -22.81177,73.18396 10.68482,3.51304 21.05116,7.26203 30.6677,11.48948 62.95754,27.67829 96.23811,67.92751 96.23811,116.376 0,48.45505 -33.28057,88.69114 -96.23811,116.37604 -32.54739,14.3077 -71.68858,24.565 -114.2783,30.2278 -10.88005,35.8907 -18.11704,59.8004 -18.39051,60.7114 l -25.48349,84.2343 -67.04301,2.3792 -27.12571,-85.9712 c -0.29493,-0.9307 -7.68562,-24.3553 -18.81491,-59.643 l -0.53518,-1.6976 c -42.63541,-5.6562 -81.81745,-15.9201 -114.39461,-30.2409 -62.959616,-27.6849 -96.240189,-67.92099 -96.240189,-116.37604 0,-48.44849 33.280573,-88.69771 96.240189,-116.376 8.88405,-3.89974 18.41682,-7.39312 28.22029,-10.68332 -12.81375,-40.82598 -22.35482,-71.34223 -24.97531,-80.01997 -3.0719,-10.17864 -19.26355,-28.38615 -29.88952,-37.39814 L 83.499099,665.72474 124.58506,622.5065 c 1.30367,-3.11979 3.81339,-11.77131 -0.57602,-25.61504 C 120.13335,584.65611 109.00751,549.3481 94.433156,503.12868 56.842101,383.86818 -21.373128,135.73352 -26.151629,122.16702 -32.291261,104.72635 -40.125731,86.119039 -40.217811,85.896197 l -60.222329,-142.71725 346.12993,158.198873 -8.93528,17.67597 c -5.51445,10.91926 -11.87563,24.17837 -14.6609,30.75876 2.61772,9.14963 8.71928,29.07368 17.87126,58.42395 47.71923,17.21783 120.22823,43.21171 194.18629,69.66372 -0.17308,-1.2643 -0.44655,-2.63413 -0.74633,-3.47896 l -26.1329,-103.83262 228.77953,68.81888 84.20186,23.09824 -50.47819,63.54211 c -1.55083,3.3564 -5.06097,11.57468 -10.06656,26.96979"
           inkscape:connector-curvature="0" />
        <path
           id="path28-6"
           style="fill:#ffffff;fill-opacity:1;fill-rule:nonzero;stroke:none;stroke-width:0.67362392"
           d="m 3577.4739,799.48243 -1.3016,1.51401 c -26.8418,31.38797 -47.3142,59.99696 -58.35,75.4386 -2.1601,3.00837 -3.9879,5.55139 -5.4625,7.58974 -0.069,0.81272 -0.1108,1.92038 -0.1523,3.32953 26.3572,-7.60285 57.083,-16.24126 74.0383,-20.98649 l 50.8659,-36.10697 z m 123.6789,-165.32916 c -12.8982,15.95286 -25.7411,33.46563 -37.0885,48.90728 -7.8857,10.7554 -14.9198,20.3245 -21.0193,28.11087 0.1662,3.30331 0.6231,7.72082 1.4539,11.35184 l 20.8532,87.68836 36.9084,-42.16304 19.3923,3.93251 -24.9794,271.76251 -41.8864,12.7872 c -1.2462,0.3867 -125.2227,38.2633 -169.2345,49.176 -14.9613,3.7096 -38.0507,8.1337 -63.0717,8.1337 -78.3517,0 -128.9752,-44.5356 -128.9752,-113.4659 V 893.46936 c 0,-28.00601 12.1643,-74.54068 46.428,-113.4594 10.5927,-12.02692 24.3425,-29.29718 37.7461,-46.10209 15.1622,-19.02679 28.4619,-35.72028 38.8054,-46.98036 0.7408,-4.08325 1.4609,-11.6009 1.1008,-18.08953 l -8.1072,-71.16527 70.6252,7.55697 c 0.8031,-0.46534 2.07,-1.39604 3.5516,-3.2902 17.253,-22.02204 28.3027,-38.05946 36.3753,-49.77243 2.1671,-3.14666 4.0848,-5.92432 5.8226,-8.39459 l 1.5854,-2.24284 c 5.5733,-7.81914 5.8987,-8.29759 5.8987,-16.06299 V 456.187 c -36.0222,12.56567 -81.9517,28.83838 -106.4327,37.52988 l -144.6359,142.00284 37.9539,-317.8259 36.2922,-12.49161 c 1.6409,-0.56301 165.2813,-56.91649 205.4575,-69.59228 15.5014,-4.88941 32.9968,-7.47045 50.5959,-7.47045 78.4416,0 135.3793,46.98036 135.3793,111.70287 v 188.26093 c 0,40.08536 -17.156,69.16691 -46.7949,105.84999 z m -2644.7152,516.27923 -14.6082,34.8355 3.704,25.7382 11.3404,-24.3881 z m -1.98,-595.75389 -17.3707,-56.77295 -18.9977,37.62033 -0.7685,109.3368 c 20.8047,-51.18157 33.2529,-81.3439 37.1715,-90.04851 z m 308.754,755.40709 -309.0725,-39.3906 0.4916,3.4279 -302.56456,-55.1141 41.85862,-83.9787 V 877.99494 c -1.93854,-2.75276 -6.05794,-7.47177 -9.9004,-10.30973 l -70.40361,-50.49339 73.85144,-45.87925 c 1.30851,-0.81928 3.53783,-2.65445 5.40714,-4.3782 V 515.46365 c -0.5331,-1.13388 -1.39852,-2.70098 -2.1047,-3.63036 l -2.00777,-2.64199 -79.3209,-120.02079 349.08944,66.27127 -3.3093,6.55418 277.6542,34.57854 -54.9991,72.09597 c -1.5024,3.57137 -3.2055,8.57418 -3.9255,11.10868 v 242.85264 c 0,6.34444 9.478,22.33664 16.8791,30.39828 l 42.5371,45.83337 -49.7097,38.84662 c -4.0294,3.15256 -8.1903,7.41278 -10.7104,10.33594 0.3392,42.79224 2.9285,218.4705 2.9285,256.6551 0,38.1781 87.3313,105.3846 87.3313,105.3846 z m 1034.4601,-211.7065 c 31.709,-2.2743 65.7304,-4.6993 80.2694,-5.7218 2.0632,-1.1273 4.971,-2.8838 7.1449,-4.5093 l 34.5545,-26.1708 -66.2288,-26.4002 -55.74,4.8632 z m 100.9218,-400.50621 c -14.2967,1.08799 -63.5149,6.07572 -100.9218,9.94269 v 129.68754 l 41.5125,-2.3464 106.2873,-68.60914 v 275.87192 l 40.8825,-30.9619 v 277.9365 l -484.9119,41.2848 85.6004,-111.4473 V 973.87602 c -1.9524,-2.22842 -5.0125,-5.25645 -7.5811,-7.0654 l -67.8489,-46.16108 66.0696,-48.41572 c 2.5686,-1.88105 6.231,-5.78734 8.3149,-8.42212 V 616.43077 l -86.4381,-90.97987 484.6073,-37.72454 31.5566,301.80027 -115.4192,-91.05066 c -0.7062,-0.30804 -1.4747,-0.57021 -1.7101,-0.60298 z m 494.1061,-84.7062 c 0.2423,46.83615 0.6369,125.85334 0.7408,156.78251 l 91.4229,42.58905 -88.529,56.77886 c -1.0315,0.79961 -2.7555,2.5168 -3.884,3.88007 v 261.69522 l 44.2264,77.2869 -322.4484,72.4434 62.6218,-127.0528 V 902.30439 l -83.4195,-29.65766 72.7783,-64.47346 c 3.9532,-3.9915 11.6382,-14.09149 11.6382,-21.60258 V 541.27335 l -48.332,-79.34424 428.5004,-97.41345 40.9516,342.8019 -119.1163,-112.75022 c -12.109,1.84042 -44.4133,8.72886 -87.1512,18.59945 z M 303.26996,497.54452 c 9.03014,28.32651 18.53867,58.13557 28.53185,89.41867 7.37475,-25.59473 14.24411,-49.4172 20.63506,-71.58409 z M 638.92465,376.62778 c -6.17563,19.02023 -31.60512,103.64582 -52.04287,171.66051 -11.99125,39.91429 -22.37974,74.48693 -25.88158,85.79944 -0.25201,3.60479 1.94962,14.16357 5.62246,22.17278 l 33.04656,55.65153 -60.04765,22.22522 c -3.64307,3.00837 -13.48185,12.78065 -20.78115,35.14351 -3.87777,11.88273 -12.21072,38.70243 -22.81176,73.18396 10.68758,3.50649 21.05392,7.25548 30.67116,11.48948 62.95823,27.6783 96.2388,67.9144 96.2388,116.376 0,48.44849 -33.28057,88.69119 -96.2388,116.36949 -32.54808,14.3012 -71.68928,24.5716 -114.28176,30.2344 -10.87937,35.8907 -18.11427,59.8003 -18.38705,60.7114 l -25.48418,84.2277 -67.04579,2.3857 -27.12501,-85.9777 c -0.29771,-0.9438 -7.91617,-25.0894 -19.34801,-61.334 -42.63541,-5.6628 -81.81469,-15.9332 -114.39185,-30.2475 -62.965152,-27.6783 -96.240186,-67.921 -96.240186,-116.36949 0,-48.4616 33.275034,-88.6977 96.240186,-116.376 8.88405,-3.90629 18.41682,-7.39311 28.21822,-10.68987 -12.81652,-40.81942 -22.36037,-71.34224 -24.97878,-80.01997 -3.06635,-10.17864 -19.26078,-28.37959 -29.88674,-37.39159 L 62.721415,689.33289 103.80461,646.11464 c 1.30851,-3.12635 3.81546,-11.77785 -0.57118,-25.61372 C 99.352893,608.25116 88.227059,572.95625 73.658241,526.73159 36.066494,407.47568 -42.151505,159.33643 -46.930005,145.76993 -53.066522,128.33451 -60.906669,109.72195 -60.998611,109.50435 L -121.21831,-33.213228 224.90865,124.97811 215.9789,142.66129 c -5.51445,10.91991 -11.87771,24.17902 -14.66366,30.75876 2.62049,9.14504 8.71927,29.06909 17.87402,58.42461 47.71924,17.21717 120.22547,43.21104 194.18076,69.66371 -0.17309,-1.25709 -0.44033,-2.63478 -0.74357,-3.47961 l -26.13567,-103.83 228.78369,68.81888 84.20186,23.08841 -50.47819,63.54997 c -1.55084,3.34853 -5.06098,11.56944 -10.07349,26.97176 z m 1070.92555,590.7465 -3.2679,2.31362 c -3.8286,2.8183 -7.3941,6.90155 -9.1388,9.37248 v 15.59895 z m 28.1365,-61.84524 0.9208,-1.25184 c 1.5924,-2.55613 3.6209,-7.3669 3.6832,-9.20207 V 728.82182 h -41.9486 c -0.055,4.21434 -0.055,8.25827 -0.055,11.4436 v 125.72882 c 2.4093,3.79487 7.4911,10.51945 12.7874,15.75624 z m -40.5432,217.32346 h 148.9145 l 118.2509,-67.1803 -40.557,271.5396 h -273.2164 c -81.0448,0 -171.3531,-62.1336 -171.3531,-151.2967 V 975.06233 c -1.4054,-3.82764 -7.2834,-13.97351 -13.9298,-21.27486 l -42.8971,-46.4167 50.8728,-38.53202 c 2.5824,-1.95314 6.2795,-6.29201 8.045,-8.92024 V 669.808 c 0,-50.02804 50.9351,-143.35824 148.2982,-143.35824 h 342.2146 c 0,0 0.2562,345.51533 0.2562,379.3349 0,33.81956 77.2023,98.04394 77.2023,98.04394 l -352.1011,-7.06538 v 126.08928"
           inkscape:connector-curvature="0" />
        <path
           id="path30-7"
           style="fill:#003263;fill-opacity:1;fill-rule:nonzero;stroke:none;stroke-width:0.67362392"
           d="m 3939.7524,222.83266 h -22.3417 l -7.9341,-23.67959 c -2.5686,-7.94957 -5.1372,-17.36334 -7.1519,-25.60784 h -0.4431 c -1.6754,8.36445 -3.9186,17.23094 -6.3625,25.48986 l -7.3734,23.79757 h -22.6878 l -4.7979,-71.2767 h 15.7506 l 1.4539,27.07663 c 0.4569,8.87894 0.8931,19.87751 1.2324,29.4938 h 0.2146 c 1.897,-9.29579 4.3617,-19.44756 6.8126,-27.92146 l 8.0518,-27.48167 h 13.2929 l 9.1596,27.80152 c 2.9147,8.35658 6.0302,18.51031 8.4949,27.60161 h 0.2147 c 0,-10.35626 0.3392,-20.72497 0.6784,-29.27883 l 1.2255,-27.2916 h 16.5399 z m -143.9297,-13.52848 h 20.327 v -57.74822 h 16.9899 v 57.74822 h 20.5624 v 13.52848 h -57.8793 z m -713.1472,365.26505 c -1.2531,0 -2.5824,0.10487 -3.974,0.28183 -15.2452,1.98657 -65.2042,13.1621 -106.862,22.90096 0.2839,53.53387 0.8239,159.42974 0.8377,181.18961 1.2116,1.95315 5.0264,5.26956 8.2181,7.09162 l 62.7117,29.21198 -59.1947,37.95525 c -3.2678,2.09734 -12.739,11.07001 -12.739,16.62795 v 270.05187 l 33.8137,59.0924 -254.2672,57.1197 46.4073,-94.1573 V 898.20803 c 0,-6.69182 -3.8563,-10.21797 -6.5772,-11.86962 l -58.9939,-20.97993 48.7612,-43.19204 c 0.18,-0.15074 17.8069,-17.24404 17.8069,-35.59575 V 535.9992 l -37.2131,-61.08692 378.6038,-86.07472 31.6258,264.79472 -82.2771,-77.87019 c -0.9554,-0.43782 -3.1155,-1.19286 -6.688,-1.19286 z m 564.3228,97.27056 c -9.8658,13.46228 -17.9177,24.41432 -24.5572,32.49562 -0.6646,4.90908 0.1039,15.2057 1.7863,22.5005 l 20.1538,84.77175 -70.3551,-36.3036 c -3.067,2.11045 -7.8095,6.06917 -14.006,13.31154 -27.4372,32.08271 -48.228,61.1636 -59.4023,76.78221 -2.2848,3.18533 -4.1956,5.85288 -5.691,7.90434 -2.9771,4.07014 -3.6002,4.92218 -3.6002,23.01172 0,7.6094 0.2977,13.09525 0.7062,17.52587 30.1027,-8.98578 84.1049,-24.13248 103.6842,-29.61178 l 86.9781,-61.74036 -6.3626,206.804 -27.9288,8.527 c -5.1025,1.5599 -125.5066,38.2961 -168.1129,48.8614 -13.7844,3.4147 -34.9976,7.4849 -57.81,7.4849 -66.7412,0 -108.1983,-35.9366 -108.1983,-93.7903 V 893.46936 c 0,-19.90505 8.7581,-63.55588 41.6094,-100.86227 10.9389,-12.42672 24.8826,-29.92638 38.3693,-46.85582 16.5329,-20.74398 30.8989,-38.76797 40.9793,-49.18912 2.2362,-5.0205 3.7248,-19.08577 3.0601,-29.34961 l -5.3863,-47.23596 48.5881,5.19747 c 2.8593,-0.24251 11.2435,-1.83517 18.8384,-11.50914 17.6407,-22.50836 28.8843,-38.84006 37.0954,-50.75491 2.1324,-3.08767 4.0017,-5.81421 5.6771,-8.18027 l 1.5578,-2.20155 c 6.2864,-8.84814 9.4434,-13.29253 9.4434,-27.06155 v -97.42918 c -38.3484,13.14113 -113.3353,39.74454 -138.9033,48.82339 l -105.4288,103.49704 29.6458,-248.14253 24.1971,-8.33101 c 6.7503,-2.33198 165.8628,-57.0928 204.9175,-69.42056 13.4105,-4.22154 28.6281,-6.46176 44.0256,-6.46176 66.4019,0 114.6023,38.70832 114.6023,92.04033 v 188.26093 c 0,34.67816 -14.9406,59.76101 -42.5232,93.90173 -13.1613,16.30023 -26.1634,34.00962 -37.6492,49.63478 z M 1756.2089,915.18335 c 0.9347,-1.27151 7.1657,-11.62711 7.1657,-20.10822 v -185.9224 h -82.5541 c -1.0108,8.87436 -1.0108,22.69057 -1.0108,31.11269 v 130.2512 c 1.9732,5.34166 10.752,17.11952 18.7208,25.00419 l 33.0036,31.87298 -37.6907,26.75415 c -9.0281,6.63939 -17.1284,17.44723 -17.1769,21.30764 v 152.81722 c 0.035,4.2471 6.8334,14.2488 12.9536,14.2488 h 162.4912 l 85.8288,-48.75 -31.9305,213.7646 h -255.1741 c -71.2206,0 -150.5761,-54.0589 -150.5761,-131.6211 V 973.47622 c -0.062,-5.97741 -9.5542,-22.19245 -19.0669,-32.63981 l -28.6073,-30.94884 33.9175,-25.68582 c 6.5495,-4.95496 15.7575,-16.41167 15.8545,-20.87506 V 669.808 c 0,-41.97295 45.0087,-123.68325 127.5143,-123.68325 h 321.4445 v 353.91189 c 0,4.96807 0.367,8.48766 0.7755,10.80784 l 28.3442,66.24309 h -252.384 z M 271.15459,464.84048 c 19.93719,62.63829 41.19397,129.22744 61.68018,193.2552 13.76294,-47.75374 29.60289,-102.70266 44.60164,-154.72384 z m 347.91388,-94.00135 c -6.24487,19.22996 -31.70897,103.96829 -52.17026,172.07276 -12.21557,40.65623 -22.76815,75.76697 -26.01936,86.22744 -2.3394,7.53074 1.93923,25.07627 7.15321,35.96276 l 21.81134,36.72962 -40.55286,15.00907 c -3.63753,2.35295 -19.75857,14.32089 -30.30353,46.63299 -4.59434,14.08493 -15.27431,48.57302 -28.55054,91.85682 75.59751,20.46214 131.72516,59.1318 131.72516,114.99962 0,73.04629 -95.91271,116.74309 -205.92692,128.69129 -12.96744,42.7529 -21.87019,72.1943 -22.17897,73.2102 l -21.33778,70.523 -35.91214,1.278 -22.52237,-71.3815 c -1.3009,-4.1292 -10.39058,-32.9282 -23.22579,-73.6362 C 161.0573,1087.0601 65.171591,1043.3634 65.171591,970.33021 c 0,-55.2845 54.956909,-93.72476 129.353219,-114.3442 -15.64263,-49.7921 -27.68304,-88.25858 -30.66839,-98.14228 -5.07621,-16.82458 -26.97686,-39.135 -36.7021,-47.22286 l -33.81367,-24.09316 27.82358,-29.27097 c 1.90393,-3.11323 9.69824,-18.01744 1.96901,-42.41208 C 119.25754,602.60146 108.13379,567.32621 93.564967,521.114 53.063334,392.59835 -22.338937,153.41211 -27.219903,139.54805 -33.543004,121.5778 -41.618406,102.39962 -41.700102,102.2102 L -82.079676,6.5061455 197.23184,134.17428 c 0,0 -18.11981,35.8507 -17.47317,38.82106 1.40337,5.91908 9.67332,32.97276 22.41922,73.75483 53.40192,19.29354 144.02242,51.77015 225.92364,81.05422 3.03451,-10.49193 5.01667,-17.32269 5.64116,-19.43248 1.40336,-4.75178 0.0111,-12.57026 -1.41722,-16.60305 l -17.13253,-68.29389 194.04436,58.35775 55.53225,15.23323 -33.73752,42.46387 c -1.30852,2.58365 -5.55946,11.6081 -11.96356,31.30931 z m 1879.37963,307.37132 -1.5162,0.0524 c -16.6645,1.26495 -79.0993,7.66183 -120.0441,11.91549 v 168.20645 l 69.2613,-3.91939 78.5455,-50.70313 v 238.89333 l -68.0082,-27.1212 -79.7986,6.9671 v 97.087 c 39.657,-2.8379 93.2022,-6.6656 106.6612,-7.5963 3.344,-1.2453 10.0666,-5.1581 14.5114,-8.4811 l 67.5166,-51.1291 v 219.0275 l -420.407,35.7924 62.6495,-81.5668 V 968.31808 c -1.4193,-4.05704 -9.4989,-12.74788 -16.2353,-17.48 l -45.2303,-30.77187 44.0464,-32.27933 c 6.1133,-4.48306 15.1483,-14.56994 16.3807,-19.05955 V 612.3934 l -31.7921,-70.20837 390.5188,-33.11957 24.5364,234.60158 -77.9431,-61.49131 c -0.049,-0.0393 -6.4872,-3.96528 -13.6529,-3.96528 z m -1223.2255,187.80345 28.3927,30.59491 -33.1767,25.92833 c -7.3318,5.72835 -15.8614,14.93042 -18.3054,19.60355 0.1454,29.53313 2.4647,221.05281 3.0186,266.39461 l 29.3343,70.7589 -234.5287,-28.9563 27.7419,-59.689 -1.6824,-140.2201 -55.5115,132.3813 9.6235,66.8265 -247.84231,-45.1518 31.03049,-62.2778 c 0.09,-0.066 0.69926,-0.662 1.39159,-1.3829 V 874.28527 c -0.29078,-4.53549 -9.72731,-16.07084 -18.13919,-22.27765 l -46.93343,-33.66882 49.23198,-30.58835 c 4.42403,-2.7462 12.44127,-9.78539 14.78829,-13.8031 V 513.03139 c -0.0554,-2.49583 -3.07397,-8.82782 -6.03717,-12.72166 l -24.05866,-74.12121 244.58141,43.83631 -30.80202,60.97156 -1.55775,222.0038 c 36.50687,-90.40835 72.43217,-178.87664 78.21317,-191.32172 2.7416,-5.89876 0.6023,-12.2124 -0.1385,-14.04036 l -20.0777,-65.94094 224.0398,34.14006 -19.2331,45.53123 c -2.0424,4.83109 -4.791,12.85275 -5.4071,16.24978 v 245.01355 c 0,14.61582 14.9406,35.63507 22.0439,43.38211"
           inkscape:connector-curvature="0" />
        <path
           id="path32"
           style="fill:#ba0021;fill-opacity:1;fill-rule:nonzero;stroke:none;stroke-width:0.67362392"
           d="m 1804.9286,895.07513 c 0,-22.82165 0,-225.26713 0,-225.26713 0,0 -94.3446,0 -129.9791,0 -35.6483,0 -36.6938,26.79348 -36.6938,70.45742 v 131.98806 c 0,20.84229 30.4005,50.61137 30.4005,50.61137 0,0 -33.5437,23.80478 -33.5437,52.59073 v 152.81722 c 0,23.8179 23.0617,53.5935 54.5076,53.5935 31.4459,0 174.0047,0 174.0047,0 l 20.9639,-11.9089 -14.6706,98.2406 c 0,0 -170.8615,0 -219.0826,0 -48.2212,0 -109.0152,-36.71 -109.0152,-92.2829 V 973.46966 c 0,-26.79348 -29.355,-58.54192 -29.355,-58.54192 0,0 31.4459,-23.81789 31.4459,-51.60105 V 669.808 c 0,-18.85638 26.2049,-84.34507 85.9603,-84.34507 59.7486,0 279.8836,0 279.8836,0 0,0 0,283.81495 0,314.57371 0,30.76532 10.4751,37.71275 10.4751,37.71275 h -129.986 c 0,0 14.6844,-19.84606 14.6844,-42.67426 z m 688.7009,-256.0259 c -26.2188,1.98592 -158.2957,15.88078 -158.2957,15.88078 v 245.2115 l 124.7451,-7.04574 23.0547,-14.8911 v 105.19458 l -19.9046,-7.93711 -127.8952,11.16176 v 175.3964 c 0,0 138.3772,-9.9296 153.0477,-10.9127 14.6706,-0.9963 35.6346,-16.8705 35.6346,-16.8705 v 101.2162 l -291.4041,24.8076 16.7684,-21.832 c 0,0 0,-245.10663 0,-270.91043 0,-25.79725 -33.5437,-48.62545 -33.5437,-48.62545 0,0 32.4982,-23.81789 32.4982,-49.61514 0,-25.8038 0,-264.95923 0,-264.95923 l -12.5797,-27.78841 292.4633,-24.79577 10.4751,100.21994 c 0,0 -18.8662,-14.89109 -45.0641,-12.90518 z m 1158.0074,-40.74666 c -25.9833,32.16726 -50.9628,69.06072 -63.9579,84.20087 -12.9952,15.1336 -3.9879,52.97743 -3.9879,52.97743 0,0 -21.9886,-11.35184 -55.9684,28.37959 -33.9729,39.73144 -57.9554,74.74386 -66.9627,87.04606 -8.9934,12.28908 -10.9874,19.85916 -10.9874,45.40735 0,25.53508 2.9978,32.16791 2.9978,42.56939 0,10.40148 13.9921,24.59784 36.9777,17.03431 22.9786,-7.57663 124.9112,-35.95622 124.9112,-35.95622 l 23.9825,-17.02776 -2.9909,97.44101 c 0,0 -123.9281,37.8372 -165.8975,48.2453 -41.9694,10.408 -113.9099,15.1467 -113.9099,-48.2453 V 893.46936 c 0,-13.23945 6.9856,-47.30151 31.972,-75.68111 24.9864,-28.3796 62.961,-79.46942 78.947,-95.54682 15.9861,-16.0774 12.9952,-57.70299 12.9952,-57.70299 0,0 30.982,1.8876 53.9537,-27.4358 22.9855,-29.32994 35.9807,-49.20745 43.9772,-60.54684 7.9964,-11.3597 17.9868,-23.66124 17.9868,-51.08917 v -100.2868 c 0,-13.23354 -4.9986,-51.07672 -41.9694,-38.77452 -36.9776,12.28908 -161.8957,56.74739 -161.8957,56.74739 l -26.9734,26.49855 12.9882,-108.79413 c 0,0 164.8797,-56.76575 203.8582,-69.06729 38.9785,-12.29695 103.9335,0 103.9335,48.25252 v 188.26093 c 0,21.76709 -7.9965,37.84514 -33.9799,69.99929 z m -578.6056,-62.42856 c -28.9812,3.78898 -142.9119,31.2169 -142.9119,31.2169 0,0 0.9969,187.31843 0.9969,212.86006 0,25.54164 29.9851,40.68179 29.9851,40.68179 0,0 -30.982,19.86572 -30.982,49.19567 0,29.3234 0,280.02077 0,280.02077 l 12.9951,22.6971 -117.9186,26.4985 13.9921,-28.3861 c 0,0 0,-238.40171 0,-272.45067 0,-34.06207 -29.9781,-47.30151 -29.9781,-47.30151 0,0 30.9681,-27.4358 30.9681,-64.33583 0,-36.89347 0,-261.0916 0,-261.0916 l -14.9821,-24.60636 278.8105,-63.39071 12.9951,108.79938 c 0,0 -14.996,-14.1839 -43.9702,-10.40739 z M 1244.116,892.09298 c 0,0 -33.5506,25.8038 -33.5506,47.63577 0,21.83197 3.1432,278.85415 3.1432,278.85415 l 8.3911,14.8779 -113.2107,-13.8948 10.482,-19.8395 -4.1956,-349.30499 -137.31784,327.46649 3.15012,21.8385 -140.46797,-27.7897 c 0,0 15.72294,-12.8987 15.72294,-24.8142 V 874.23284 c 0,-28.7794 -34.59601,-53.58697 -34.59601,-53.58697 0,0 33.55059,-20.84229 33.55059,-44.65362 V 513.01894 c 0,-18.85638 -14.67752,-36.70865 -14.67752,-36.70865 l 126.83589,22.82165 -11.52739,22.8269 -3.15013,448.52867 c 0,0 147.80672,-368.15478 159.33412,-392.96103 11.5274,-24.82199 -1.0454,-47.63053 -1.0454,-47.63053 l 109.0151,16.85604 c 0,0 -8.3841,19.85457 -8.3841,29.77825 v 246.10155 c 0,34.72404 32.4982,69.46119 32.4982,69.46119 z M 206.97854,399.43436 c 56.60674,178.42441 127.97685,400.80835 127.97685,400.80835 0,0 52.07333,-180.75113 92.48358,-320.87293 z m 294.0287,218.60874 c -8.51295,27.41612 9.36869,63.6935 9.36869,63.6935 0,0 -33.21065,15.31712 -51.09229,70.12972 -17.88442,54.81915 -125.18051,409.53128 -125.18051,409.53128 0,0 -120.069,-380.50282 -130.28856,-414.36171 -10.22026,-33.85889 -49.38846,-66.0989 -49.38846,-66.0989 0,0 23.84197,-29.0219 8.51089,-77.39829 C 147.61076,555.17542 19.017731,146.45091 12.205149,127.10822 5.3925664,107.76028 -3.1127766,87.614047 -3.1127766,87.614047 L 145.91246,157.74901 c 0,0 -12.77567,-4.03017 -6.81535,23.38006 1.37913,6.33658 12.62682,42.95019 29.0781,95.4223 66.26413,24.06104 227.38101,81.66572 287.96592,103.32008 9.74947,-33.77959 16.38897,-56.73953 17.61925,-60.90275 5.96031,-20.14623 -2.55541,-41.11436 -2.55541,-41.11436 l 124.32409,41.11436 c 0,0 -5.95409,8.86912 -16.17989,40.3082 -10.21679,31.44237 -69.82551,231.35794 -78.34193,258.7662"
           inkscape:connector-curvature="0" />
        <path
           id="path34"
           style="fill:#c4ced4;fill-opacity:1;fill-rule:nonzero;stroke:none;stroke-width:0.67362392"
           d="m 333.66765,1063.0325 c -10.47712,0 -20.76176,-0.3146 -30.86017,-0.8717 -4.55695,-14.4585 -9.42199,-29.8805 -14.45527,-45.8661 14.46635,1.0421 29.64581,1.5926 45.31544,1.5926 15.33731,0 30.21699,-0.5243 44.4071,-1.514 -4.84358,15.9529 -9.52792,31.3683 -13.90626,45.8006 -9.98486,0.5506 -20.15112,0.8586 -30.50084,0.8586 z m -45.32098,-46.7378 c 5.03882,15.9856 9.89832,31.4076 14.45527,45.8661 -110.72246,-6.1544 -196.07429,-44.9158 -196.07429,-91.83059 0,-38.64999 57.89657,-71.7486 140.16819,-85.66967 4.33818,13.77688 8.81413,28.00601 13.34685,42.39898 -60.92069,7.51109 -103.27155,24.05384 -103.27155,43.27069 0,22.04826 55.75448,40.58349 131.37553,45.96449 z m 75.82459,45.8792 c 4.37557,-14.4323 9.05991,-29.8477 13.90626,-45.8071 76.08907,-5.2958 132.28456,-23.89657 132.28456,-46.03659 0,-19.40037 -43.17335,-36.08075 -105.04531,-43.48042 4.40256,-14.45197 8.75666,-28.72041 12.98129,-42.53662 83.40152,13.70479 142.30474,47.03934 142.30474,86.01704 0,46.96729 -85.53322,85.75489 -196.43154,91.84369"
           inkscape:connector-curvature="0" />
      </g>
    </g>
  </g>
</svg>
