<svg height="316.227766" viewBox="0 0 150 149.99792" width="316.227766" xmlns="http://www.w3.org/2000/svg"><g transform="matrix(1.25 0 0 -1.25 -1.0414 761.6)"><path d="m60.688 490.16c32.694 0 59.2 26.506 59.2 59.2s-26.506 59.198-59.2 59.198c-32.695 0-59.2-26.505-59.2-59.198 0-32.694 26.505-59.2 59.2-59.2" fill="#fff"/><path d="m60.688 604.9c-30.63 0-55.546-24.918-55.546-55.546s24.917-55.545 55.546-55.545c30.626 0 55.546 24.917 55.546 55.545s-24.92 55.546-55.546 55.546" fill="#ff5910"/><path d="m108.29 527.41c-.12942-.28041-.2605-.56082-.39324-.83957-.74998-1.5464-1.5746-3.0514-2.469-4.5098-.75495-1.2361-1.563-2.4358-2.4175-3.6022-.89267-1.2228-1.8384-2.4059-2.834-3.5458-.72343-.82796-1.4734-1.6344-2.2466-2.4158-5.142-5.1951-11.359-9.3233-18.288-12.02.66038.32687 1.0271.51934 2.0392 1.6144l-.71016.1792c-.8794-.88106-1.8202-1.719-3.4695-2.3777l.99057.15265c-.76491-.2771-1.5348-.5376-2.3163-.77985l.99554.95738-.818.32024c-.39324-.58737-1.0022-1.1913-2.2367-1.8666-4.2875-1.1382-8.789-1.7472-13.43-1.7472-14.605 0-27.829 6.0048-37.344 15.67-.76989.78482-1.5215 1.5912-2.2416 2.4225-.90429 1.0387-1.7638 2.1155-2.5851 3.2239-.85285 1.1532-1.6592 2.3428-2.4175 3.5674-.84621 1.3639-1.631 2.7709-2.3511 4.2145-.13274.26382-.26382.5293-.39158.79644-1.6095 3.3682-2.8705 6.9323-3.7349 10.649-.06471.27875-.12444.56082-.18418.84289-.02157.0913-.04314.18252-.061392.27543-.72675 3.4744-1.1117 7.075-1.1117 10.762 0 7.007 1.3838 13.694 3.8876 19.806-.16426-.78648-.1261-1.4552.06471-2.2201-.8794-.8794-1.4966-1.8866-1.8683-3.2969l.71845-.4397c.22898 1.1498 1.1499 2.6382 1.9197 3.5159-.54921 1.8683.27875 2.9269.60894 4.246l-.59567.15265c3.5292 7.7038 8.8703 14.409 15.477 19.569-.32521-.5741-.70186-1.3042-.87442-1.8733l.76989.49279s.89599 1.49 1.7605 2.6199c1.6825 1.2112 3.4396 2.3246 5.2614 3.3334l-1.4352-.82796c-1.417-1.6708-1.6045-2.7444-2.1222-3.9706l1.6576.41979c.29534 1.0503 1.0901 3.2073 2.5834 4.7504 7.3421 3.9191 15.72 6.1458 24.61 6.1458 19.969 0 37.364-11.223 46.211-27.693.0747-.51934.30198-1.8351-.073-2.0226.12776-1.0337-.45795-2.1869-.85617-2.8688l.4397-1.4834c.68361.82465 1.198 2.3246 1.125 3.1542.47787.35342.25553 1.0154.25221 1.4933.40153-.818.78316-1.646 1.1416-2.4855-.0581-.30032-.24889-1.1548-.60563-1.5978.20243-.95904-.24059-1.938-.6471-2.6531l.54755-1.3738c.24723.16427.95738 2.0044.94577 3.0198.26381.34844.3335.72674.39323 1.0503.31858-.82299.6189-1.6559.89931-2.4988-.0498-.41813-.18417-1.2229-.51104-1.5315.20408-.92087-.24059-1.5779-.51769-2.1836l.49612-1.3738s.82464 1.8401.80307 2.5021c.13606.30696.26216.48781.30696.7284.28539-.98558.54423-1.9828.77486-2.9916-.18417-.85949-.67033-1.6709-1.0602-2.5469l.10785-.8263s.65872.82298 1.2444 1.9961c.12444-.62222.23561-1.2494.33682-1.8783-.10619-.31858-.57409-1.6808-.86446-1.8749l.10785-.60397s.58239.78151.92752 1.3324c.32687-2.3578.49777-4.7653.49777-7.2127 0-3.5026-.34678-6.924-1.0055-10.236-.81303-4.0933-2.1039-8.0158-3.8146-11.708" fill="#fff"/><path d="m60.011 599.99-.32407-2.5718-.71036-.76739v-5.3562l-1.7526-1.317v-3.85l-1.1381-.7674v-7.8088h-4.9596v6.0925h-7.254v-5.9344l-1.5374-.65851v-10.772h-5.2785v9.0143l-.54962.54703v4.7262h-.54703l-1.2963 4.9725c.0448.23727.07518.53853.07518.87369 0 .74998-.1428 1.0422-.3137 1.0422s-.30851-.29223-.30851-1.0422c0-.37001.0334-.70497.08815-.94888l-1.3222-4.8973h-.54962v-4.7262l-.55222-.54703v-9.8051h-5.8229v.64555c-.33185-1.3174-1.1997-3.5192-.76999-5.3277l-.14.0907.46666-.33444c-1.2079-.33018-3.1873-1.9767-3.627-3.1862l-1.0967.87887c.54589 1.636 1.9399 1.9972 3.5725 3.0774l-.38629.2437c-.06637 1.6045-.05848 3.392.81925 5.2603l1.1615-.70258v6.6032c0 .99057-1.4311 1.0163-1.4311 1.0163v1.7655l-1.2107.33185-.10889.75962-.32666.11147-.33185-.11147-.10888-.75962-1.2107-.33185v-1.7655s-1.4285.0844-1.4285-1.1252v-9.4473l-2.3074-1.5192v-5.6051l-.87888-.49518v-4.2855l-.82444-.49518v-7.9669h-.16592-1.4829v7.9125h-.3837l-.99036 8.6125-.49259.0156-1.0474-8.628h-.60407v-6.3181h-1.2652s-.78648-.66722-.74666-1.0007c.18252-1.6294.43794-3.2357.76481-4.817.018252-.0929.040651-.18356.062221-.27481.059733-.28207.11936-.56643.18407-.84518.86446-3.7167 2.1248-7.2794 3.7359-10.648 1.1399.77321 2.2811 1.8343 2.2944 1.8459l.12963.11925h3.1344l.12444-.10111c9.7248-8.1203 27.774-11.579 39.163-12.128l-.81147.37074c1.0984.76822 2.5271 2.4588 2.6366 2.8985l.81925-.99036c-.50441-.80639-1.3256-1.7333-2.0507-2.3074.70518-.0282 1.3871-.0452 2.0326-.0518 12.756-.11448 32.549 5.1144 41.683 13.082l.12185.10888h3.1448.17889l.41221-.41481 1.9211-1.8459c1.7107 3.6918 3.0006 7.6147 3.8137 11.708l-.52629 1.2211h-2.4189v5.2785h-2.6392v-3.08h-2.1959v28.14h-6.1573v-14.29h-4.6148v16.709l-.8374.71813v1.9807l-1.8044.81666v2.4085h-3.0048v-2.4085l-1.8044-.81666v-1.9807l-.83221-.71813v-3.3003h-4.4696v9.6728h-3.7359v4.6174h-2.4163v2.4163h-5.4962v-2.4163h-1.9807v-7.6947h-2.9789v8.9703l-1.1407.7674v3.85l-1.7526 1.317v5.3562l-.65332.76739-.26963 2.5718h-.36555zm42.933-71.202c-1.0536-.90263-2.2446-1.7707-3.5388-2.6003v-11.275h.77259c.99554 1.1399 1.9419 2.3228 2.8363 3.544v10.331h-.07zm2.4863 0v-6.7277c.89433 1.4568 1.7181 2.9621 2.4681 4.5085l-2.1518 2.0689-.15037.15037h-.16592zm-86.913-.87888v-9.6651c.82132-1.1084 1.6805-2.1839 2.5848-3.2226l1.1485-.003v10.318c-1.2959.80141-2.5153 1.6543-3.627 2.5718h-.1063zm-2.4189-.0233c-.31028-.28041-1.3052-1.1686-2.3489-1.8589.72011-1.4435 1.5026-2.8516 2.3489-4.2155zm82.428-2.2478c-1.042-.63217-2.1429-1.2376-3.2977-1.82v-8.9003l3.2977-.003v10.723zm-75.397-.83222v-9.7895l3.2977-.005v8.0603c-1.1399.54423-2.2441 1.1205-3.2977 1.7344zm71.22-1.4233c-1.0636-.51271-2.1645-1.003-3.2977-1.4726v-6.987l3.2977-.005v8.4647zm-67.041-.72073v-7.6506l3.2951-.003v6.2714c-1.1233.4314-2.2233.89402-3.2951 1.3818zm62.864-1.1096c-1.0768-.4314-2.1811-.83802-3.2977-1.2263v-5.3977l3.2977-.005v6.6292zm-58.69-.60147v-5.9448l3.3003-.005v4.8274c-1.1133.34844-2.2152.7227-3.3003 1.1226zm54.511-.92814c-1.0851-.36503-2.1851-.70736-3.2951-1.0292v-4.0574l3.2951-.005v5.0918zm-50.332-.46666v-4.5551l3.2951-.005v3.64c-1.1051.28539-2.2034.59017-3.2951.92036zm46.158-.81407c-1.0951-.30696-2.196-.59266-3.2977-.85813v-2.9426l3.2977-.005v3.8059zm-41.981-.32925v-3.4196l3.2977-.005v2.6729c-1.0968.22898-2.1977.47807-3.2977.75185zm37.805-.73629c-1.1034-.25386-2.2043-.48667-3.2977-.6974v-2.03l3.2977-.005v2.7326zm-33.631-.19963v-2.4889l3.3003-.005v1.89c-1.0885.17919-2.1886.38006-3.3003.60406zm29.451-.6611c-4.5231-.81966-8.8832-1.2508-12.641-1.2159-3.4927.0299-7.9005.38536-12.631 1.1304v-1.7474l25.272-.0363zm-50.119-4.2181c9.5141-9.6651 22.74-15.669 37.343-15.669 4.6409 0 9.142.61081 13.429 1.7474 1.2345.67531 1.8425 1.2793 2.2374 1.8666l.81666-.31888-.99554-.95666c.7815.24059 1.5545.50068 2.3177.77777l-.99036-.15296c1.6476.66038 2.5894 1.498 3.4688 2.3774l.71036-.17889c-1.0105-1.0951-1.3774-1.284-2.0378-1.6126 6.9273 2.6979 13.144 6.8224 18.288 12.019l-31.606.0441.33703-.35c-.76989-1.2096-2.5678-2.9009-3.7774-3.5596l-.87888.7674c1.1897.54921 2.6132 2.0779 3.3781 3.1448l-42.041.0544z" fill="#002d72"/><path d="m67.196 542.75c.7367.43804 1.3291.33517 1.5165.12279.0531-.0614.07964-.1427.07964-.23893 0-.19579-.11283-.44966-.33019-.71845-.88935-1.1167-2.6382-1.8102-3.8129-2.0326.45629.95738 1.3705 2.1686 2.5469 2.8672m2.1537-1.5448c.41813.521.58073 1.0105.58073 1.4286 0 .40319-.15099.74168-.36172.98558-.62885.72343-1.8434.76823-2.9534.10785-1.7389-1.032-3.0795-3.0414-3.3749-4.3887l-.14104-.64545.66204-.0415c1.3772-.0879 4.2377.86281 5.5883 2.5536m21.944 18.909-7.6159-.0631s-2.5552-5.4158-2.8273-5.9898c-.61558-.01-5.4373-.0913-5.4373-.0913l-2.7062-5.5153s4.2559.16593 5.5369.2157c-.62221-1.3556-3.3898-7.362-3.3898-7.362-1.3622-2.6282-5.1171-7.5811-9.5108-7.3454-.74334.0398-1.11.47786-1.3224 1.2079 5.434.65042 7.8947 2.7709 8.8421 4.0386.96568 1.2959 1.4552 2.6398 1.4552 3.8826 0 .92917-.27377 1.8019-.8263 2.5586-1.4717 2.011-4.5513 2.6365-7.6607 1.5564-5.0109-1.7405-8.8338-7.0103-8.8338-11.907 0-.2605.02489-.51934.04812-.77984-.24391-.19413-.52598-.37001-.68029-.35508-.01162.002-.03484.003-.07633.0664-2.0492 3.3998 7.752 21.285 11.442 28.02l.46127.84123h-8.8769l-.16758-.16758c-2.9617-2.9783-6.6386-9.0943-9.5954-14.007 0 0-.71015-1.1615-1.3987-2.2898.3584 1.4485.73836 2.98.73836 2.98 1.0735 4.548 2.4109 10.208 3.7449 12.7l.44965.84289-.95738-.007-7.3073-.0548-.16758-.20243c-1.7206-2.0724-3.7963-6.8726-5.9915-11.955-3.0132-6.9655-7.1347-16.506-9.6369-15.786-.11283.0332-.20077.0896-.25884.25719-.37499 1.0503.92586 4.032 2.3312 6.0512l1.0138 1.4601-6.1823-2.2201-.09458-.10619c-2.0591-2.2682-3.9075-6.5175-3.3035-9.4295.28539-1.3705 1.0868-2.3876 2.3163-2.9435 1.6476-.745 3.3633-.7815 5.0988-.10785 4.5712 1.7721 8.1834 7.976 10.123 12.003-.95904-4.5231-2.4806-9.31-3.569-11.019l-.5575-.87442h7.0269l.1709.224c.8628 1.1283 2.1437 3.2438 3.6271 5.6945 1.0055 1.6576 2.079 3.3965 3.1476 5.064-.57078-1.631-.9607-3.2969-.9607-4.85 0-1.3091.2157-2.5171.66536-3.4927.72177-1.5597 1.9878-2.5088 3.6619-2.7394 2.5237-.28539 4.6658 1.2876 5.6265 2.2333.40651-.4314.80307-.86446 1.3539-1.2079l.01659-.01c2.0359-1.1913 7.7503-1.6344 11.991 2.4855.58239-1.5082 1.8252-2.6216 3.5043-3.0082 2.1106-.4845 4.548.28373 6.3947 1.8633 1.0271-.71348 2.1852-1.4236 3.3533-1.6327 6.5523-1.1681 9.7895 3.8942 10.259 6.3831.1709.9076.24225 1.7289.24225 2.4822 0 1.8915-.44136 3.3367-.81966 4.5662-.27212.89267-.49777 1.6244-.49777 2.3279 0 .63383.18418 1.2444.67697 1.9247l.39158.53593s-2.5868 1.329-3.3965 1.7455c1.5978.0249 3.9341.0614 3.9341.0614l2.2317 5.4406s-8.5766-.13274-10.093-.15597c.58737 1.2278 2.8423 5.9616 2.8423 5.9616m-.65872-11.334c-1.1664-.84953-3.2123-3.272-7.4948-8.6911-1.1548-1.4634-2.3876-3.0182-3.1824-3.9506.08462.23727.17422.48284.32189.77154 0 0 5.5302 11.749 5.5518 11.797.33019.005 2.4026.0365 4.8035.073m-4.1595-11.66c1.0072 1.5746 1.8866 2.678 2.7228 3.6852.01991-.21239.05144-.5293.05144-.5293.10785-.86944.21238-1.704.21238-2.6448 0-.46624-.02655-.95904-.0896-1.495-.08462-.71016-.58737-1.7621-1.3506-2.3097-.48118-.34513-1.0204-.45795-1.5995-.33517-.18418.0382-.40983.21404-.49943.51768-.02821.0913-.04314.18916-.04314.29037 0 .49445.32189 1.0901.91092 1.6808l.38826.38992s-.54091.57576-.70352.74998m-1.641-3.4363c.19413-.66038.72675-1.1731 1.3523-1.3058.89267-.18749 1.7571-.008 2.5005.52432 1.0851.7815 1.7007 2.1554 1.8135 3.1011.2074 1.7505.03816 3.1028-.12112 4.4119l-.32521 3.1974-.8711-1.032-.75827-.92253c-.96236-1.1582-1.9579-2.3545-3.1575-4.2958l-.23229-.37001s.45961-.49113.62221-.66369c-.63383-.79312-.91092-1.5099-.91092-2.0259 0-.24889.03816-.45795.08794-.6189" fill="#fff"/><path d="m54.312 598.76-1.9211-.27481c-.38494-.76989-1.4292-1.9224-1.9237-2.3074.521-.21902.93394-.7141.82444-4.2881l1.7292.10889c-.10951 3.9589-.84974 3.9588-1.1252 3.9588.60396.38494 2.4163 2.8026 2.4163 2.8026zm3.4637-.16592c-.27543-.65872-2.3081-1.9224-2.8026-2.3074.09458-.078.41398-.17858.68444-.39926.48948-.3949 1.1785-1.5348 1.1304-4.0236l1.5348-.10889c-.0813 2.8572-.7955 3.7714-1.0759 4.0003-.20243.224-.63943.25895-.84518.3137 1.1615.45961 2.9659 2.3618 2.9659 2.3618l-1.5918.16333zm-8.7395-.0544-1.6463-.16333c-.16758-.8794-.66183-1.9795-1.1563-2.3644.54921-.99056.55014-2.4175-.32926-4.2311l1.6489.10889c.8794 2.1985.65872 3.2995.16592 4.0677.60396.38494 1.317 2.5822 1.317 2.5822zm-4.3944-.54703-1.8148-.49777c-.21902-.98891-.6609-1.6476-1.1537-2.0326.52432-.17588.26776-.8124-.06741-1.6437-.29534-.7367-.67407-1.2964-1.0889-2.1492l1.6489.11148c1.1017 1.87 1.9248 3.6828 1.1018 3.9018.60396.38495 1.3741 2.31 1.3741 2.31zm20.165-.057c-1.1515-1.3191-2.1983-1.8136-2.6911-2.1985.87774-.4397 1.5931-1.9234 1.3741-4.1766l1.7603-.43815c-.11117 2.8572-.77144 3.9576-1.5944 4.1766.60396.38494 2.9659 2.4733 2.9659 2.4733l-1.8148.16333zm-24.37-.94369-1.6463-.30851c-.29037-.79976-.71835-1.4286-1.2626-1.8252.14104-.85782-.15576-1.6249-1.4052-3.5181l1.5478.19963c1.5082 1.9413 1.3751 2.8537 1.3585 3.5207.65042.39656 1.4078 1.9315 1.4078 1.9315zm29.099-.0467c-.65872-.76989-1.9235-1.3719-2.4163-1.7552.54589-.99056 1.9768-2.5845 1.7578-4.8377l1.5374-.22036c-.4397 3.6271-1.0964 4.1763-1.9211 4.397.60396.38494 2.857 2.144 2.857 2.144l-1.8148.27222zm5.1644-1.317c-.38494-.76989-1.3731-1.155-1.8692-1.54.55087-.9889 1.5412-2.6389 1.3222-4.8922l1.7033-.49259c-.33019 3.2969-.71534 4.725-1.54 4.944.60396.38494 2.0896 1.7059 2.0896 1.7059l-1.7059.27482zm4.8377-1.7033c-.38494-.76988-1.3748-1.155-1.8692-1.54.55087-.98891 1.4297-2.1982 1.2107-4.4514l1.6463-.65851c-.33019 3.4081-.65737 4.2852-1.4804 4.5059.98891.54921 2.1985 1.7033 2.1985 1.7033l-1.7059.44073zm5.1644-1.9263c-.38494-.76823-1.3738-.93208-1.8666-1.317.54755-.98891 1.5386-2.473 1.3196-4.7262l1.7578-.87888c-.11117 2.7477-.76978 4.6161-1.5944 4.8351 1.0984.49445 2.0352 1.54 2.0352 1.54l-1.6515.54703zm4.3425-2.087c-.38494-.54921-1.3705-.93467-1.8666-1.3196.54921-.9889 1.5931-2.2526 1.3741-4.5059l1.7552-.98776c-.10785 2.8572-.76719 4.6706-1.5918 4.8896.82464.38494 1.8148 1.374 1.8148 1.374l-1.4855.54963zm4.1222-2.4163c-.38494-.76989-.87795-.71689-1.3741-1.1018.55087-.9889 1.5931-3.021 1.3741-5.2759l1.5374-1.0966c-.22068 3.5176-.60386 5.4389-1.4285 5.6596.60396.38494 1.2081 1.0448 1.2081 1.0448l-1.317.76999zm4.3996-2.8052c-.16592-.60397-.82941-.82319-1.3222-1.2081.54921-.9889.98901-3.1859.76999-5.4392l1.5374-1.1018c.11117 3.4081-.38577 4.7818-.93332 5.8255.60396.38494.93332.93591.93332.93591l-.98517.98777zm3.8992-3.3496c-.16592-.60562-.65758-.82578-1.1537-1.2107.27377-1.2096.82371-2.9674.49518-4.7262l1.2055-1.2626c.27709 1.9778.11242 4.0663-.21778 5.1099.38495.27544.76999.87888.76999.87888l-1.0992 1.2107zm3.0229-3.8474c0-.23395.0258-1.7487-.41222-1.9678.12942-1.0337-.18158-2.188-.57814-2.87l1.0448-1.2652c.51768 1.0453.75817 2.6574.68184 3.487.12942.43307.26776.37603.30593.85555l-1.0422 1.7604zm-89.415-6.7044c-.8794-1.8683-.6611-3.6275-.32926-4.9466-.88106-.8794-1.5802-1.4099-2.1311-3.0592l.8711-.54963c.10951 1.2079 1.0404 2.3976 2.1389 3.277-.54921 1.8683.2298 3.6457.55999 4.9648l-1.1096.3137zm2.7481-.77258c-.59069-1.9977-.65944-3.8436-.32926-5.1644-.88106-.8794-2.1289-1.511-2.6781-3.1603l1.0889-.5574c.4397 1.2079 1.5894 2.8379 2.7974 3.1681-.55087 1.87.06129 3.9075.39148 5.2266l-1.2704.4874zm3.4585-1.3585c-.66038-1.8683-.37976-3.29-.16074-5.4884l.19703-.0959c-.88603-.86447-2.6196-1.3108-3.1655-2.9452l1.0992-.88147c.43804 1.2096 2.3102 2.7488 3.5181 3.0774l-.32925.18666c-.55087 1.8683-.21964 4.1771.10889 5.4962l-1.2678.65073zm3.5155-1.82c-.87774-1.87-.88562-3.6532-.81925-5.2577l.38629-.2463c-1.6327-1.0802-3.0283-1.4388-3.5725-3.0748l1.0992-.88147c.4397 1.2096 2.4174 2.8587 3.627 3.1888l-.47185.33184.14259-.0882c-.4314 1.8086.43814 4.006.76999 5.3251l-1.1615.70259zm3.7981-2.6366c-.76989-1.782-1.7583-4.8452-1.1278-5.2318l.31888-.39666c-1.4369-.54755-4.0313-1.2053-4.3399-2.4863l1.0396-.93851c.20409.85285 2.1275 1.7919 4.2181 2.3411l-.36037.44592c-.0531 1.8052.9747 4.0734 1.4078 5.2681l-1.1563.99814zm22.685-2.2011c-1.261-.01-5.4089-.0408-5.8851-.0441-1.5978-2.0342-3.5808-6.6041-5.6881-11.477-4.5496-10.526-7.7719-17.356-10.992-16.426-.48948.14104-.84206.4759-1.0163.96703-.0896.24723-.12703.5267-.12703.82703 0 1.4552.91455 3.4162 1.7292 4.8481-1.2245-.43804-2.5078-.90159-2.6937-.96962-1.6144-1.8235-3.054-4.9488-3.054-7.3447 0-.34844.02862-.68008.09333-.99036.21404-1.0287.762-1.7274 1.6696-2.1389 1.3805-.62387 2.7596-.65301 4.2181-.0856 5.1768 2.0077 9.2898 10.778 10.425 13.419.6189 1.4352.85171 1.976 1.4441 1.8018.32853-.0946.43555-.30696.43555-.6637 0-.24888-.05195-.56901-.11666-.97221 0 0-.08555-.53189-.08555-.54184-.72011-4.2427-2.2994-10.008-3.7048-12.857h4.4644c.82464 1.1266 2.0202 3.0854 3.404 5.3718 1.6161 2.6697 3.4489 5.6976 5.0866 8.0006 1.5315 2.1587 1.7278 2.4337 2.2737 2.1052.54091-.32687.38982-.62243-.81147-2.9918-2.1338-3.3301-2.8753-7.9474-1.6955-10.508.55916-1.2079 1.4981-1.9111 2.774-2.087 2.4275-.27378 4.5752 1.6932 5.0166 2.2374l.4537.55999.43814-.57295c.40651-.53096.89485-.96195 1.527-1.3585 1.5929-.92585 6.9697-1.5092 10.871 2.5278l.06221.0856.66629.39666.32407.14777.2437-.61962s.12246-.3055.17889-.41999c.61724-1.6825 1.8766-2.2922 2.8207-2.5096 1.8899-.43306 4.1442.28487 5.7503 1.8329l.33962.32666.3837-.27222c.99554-.70683 2.158-1.4555 3.22-1.6463 6.2935-1.1216 8.6888 4.1156 8.9443 5.4729.15929.83626.22296 1.5877.22296 2.2763 0 1.714-.4033 3.0305-.76999 4.2285-.28539.93249-.55222 1.7996-.55222 2.6807 0 .64212.21539 1.306.5937 1.9963-.82796.42808-2.3887 1.2273-2.6807 1.3766-1.0005-.45795-5.0184-5.5344-7.4458-8.6073-4.2576-5.3909-4.3053-5.3678-4.8844-5.084l-.47962.56c-.24557.73504.26942 1.9219.59629 2.564 0 0 5.5408 11.77 5.5325 11.747l.26963.6611s9.7848.15078 10.482.16074c.18915.46956.89952 2.2002 1.2911 3.1526-1.4435-.0232-10.202-.15814-10.202-.15814s2.2626 4.7546 2.8466 5.9758c-1.2477-.0116-4.5438-.0391-5.0814-.0441-.27543-.57741-2.8285-5.981-2.8285-5.981s-4.8397-.0834-5.447-.0933c-.21072-.42476-1.0672-2.173-1.5633-3.1785 1.3058.0514 5.4859.21259 5.4859.21259s-4.1641-9.0456-4.174-9.0688c-1.5995-3.0895-5.633-8.248-10.596-7.9825-1.032.0564-2.3137.57254-2.5692 2.7196l-.06741.58074.58073.0518c5.5502.48781 7.8488 2.5352 8.7266 3.71 1.3954 1.87 1.6211 3.7253.62222 5.0892-1.1731 1.6061-3.7341 2.0679-6.3673 1.1537-4.84-1.6792-8.5844-7.1953-8.0136-11.801l.0337-.27481-.19444-.19444c-.15265-.15265-.95313-.90999-1.7811-.82703-.37333.0382-.689.23437-.92295.5911-.28041.46293-.41222 1.0888-.41222 1.8537 0 4.8682 5.3319 15.43 11.363 26.475h-6.4658c-2.8423-2.9319-6.4078-8.8387-9.2866-13.624 0 0-2.5118-4.1079-2.5848-4.2207-.62553-.94908-.83646-1.2679-1.3326-1.0422-.24723.11117-.3474.2604-.3474.51592 0 .26714.11035.64959.26963 1.2237l1.2522 5.0607c1.047 4.4351 2.2304 9.3075 3.4948 12.133zm-19.548-.37592c-.99057-2.8572-1.4874-4.358-1.1589-5.7866l.30852-.33444c-.89765-.33184-3.3775-1.0255-4.3581-2.5537l.86073-1.177c.76989 1.0984 3.0792 2.3071 4.6174 2.5277l-.33185.36815c-.20409 2.0807.77528 4.5853 1.2133 5.7866l-1.1511 1.1692zm4.3451-4.7781c-1.1996-1.7322-2.4247-3.9749-2.3152-5.294l.30333-.33444c-2.2367-.48948-3.4342-.42964-4.9673-1.6359l.98258-1.4363c.76823 1.0984 3.5718 1.6502 5.1099 1.8692l-.33185.36296c-.0896 1.7522 1.2266 3.9378 2.2089 5.0296l-.99036 1.4389zm-1.107-10.35c-.76989-.21902-1.979-.55004-3.0774-1.0992l-.23852-.11925.48481-1.1537c.71845.48947 1.744.84808 2.7196 1.0007l.11147 1.3715zm33.304-2.3074c.521-.0191.98186-.21125 1.2963-.57296.21072-.24391.36036-.58198.36036-.98517 0-.41813-.1626-.9075-.58073-1.4285-1.3506-1.6908-4.2098-2.6433-5.587-2.5537l-.6611.0415.14.64555c.29534 1.3473 1.6366 3.3572 3.3755 4.3892.55502.33019 1.1356.48315 1.6566.46407zm21.78-.57815.32666-3.1966c.15929-1.3091.32926-2.662.12186-4.4125-.11283-.94577-.72965-2.3192-1.8148-3.1007-.74334-.53261-1.6066-.71378-2.4992-.52629-.62553.13274-1.1592.64628-1.3533 1.3066-.04812.16095-.08815.37074-.08815.61963 0 .51602.27616 1.2317.90999 2.0248-.1626.17256-.62222.66369-.62222.66369l.23333.37074c1.1996 1.9413 2.1954 3.1377 3.1577 4.2959l.75703.92295.8711 1.0318zm-41.786-13.02c-.33185-.88105-.66141-1.3174-.44074-2.1985l.52629-.65592c-1.3058.2157-2.183.16136-3.4922.0519l-.88147-1.1563c.8794 0 3.9554.11241 5.0555-.21778l-.62222 1.2444.29296-.36555s-.000934 1.3197.32926 2.0896l-.7674 1.2081zm4.6744-3.6788c-1.032-1.1333-2.2662-2.7397-2.2529-3.4714l.37851-.46666c-.91258.20906-3.6662.054-5.727-.16334l.79851-1.2678c1.0968.10951 5.0641.16883 6.1625-.0518l-.43555.53666c-.20575.58572-.05714 1.3388.45888 2.0274.53593.71347 1.4966 1.7401 2.4474 2.8103-.71181-.17754-1.8304.0467-1.8304.0467zm4.0185-2.9063c-.44136-.66037-3.5877-3.7053-3.0385-5.0244l.77518-.26185s.71876-.43306-.05445 0c-.7898.44136-4.7959.65976-6.8832.44074l1.0396-1.4881c1.0984.10951 5.7426.27771 6.8444.057-.06139.0531-.90211.84071-.67147 1.2107.38826.6272.91901 1.6912 2.8985 3.7022l-.90999 1.3637zm3.067-4.1455c-.10951-.4397-1.5408-2.1303-2.6392-2.8985l.81666-.37074c.19745-.01.39532-.0202.5911-.0285.72675.57409 1.5463 1.5052 2.0507 2.31l-.81925.98777zm5.3588-7.2877c-.76491-1.0652-2.191-2.5904-3.3807-3.1396l.87888-.76999c1.2096.66037 3.0075 2.3491 3.7774 3.557l-.33703.35259h-.93851zm-5.0296-1.0526c-2.4175-.32853-5.2936-.43845-6.611-.21778l1.0059-1.1563c2.0873-.10951 4.5058.10992 6.2662.54962l-.6611.82444zm8.4258-1.2315c-.42974-.6919-2.2865-3.1014-3.7151-3.7618l.98777-.65851c1.2096.65871 2.7275 2.2634 3.4974 3.5311l-.76999.88925zm-5.9525-1.68c-.76989-.33019-1.7041-.60458-6.4114-.5548l1.1122-1.0992c3.5176.10951 4.4737.33454 6.2325.77258l-.93332.88147zm8.6177-.85036c-.54755-.98724-2.0791-2.5094-3.5077-3.1681l.87888-.54962c1.2096.65872 2.7404 1.7408 3.5103 2.9503l-.88147.76739zm-5.504-1.89c-1.7588-.60397-4.7667-1.0477-6.5255-.82703l1.4285-.99036c1.9778-.10951 4.4374.6077 6.1962 1.0474zm8.1329-.0959c-.54755-.98891-1.9625-2.0557-3.3911-2.7144l.53407-.30073c-.4397-.55253-1.1032-1.5232-4.6822-2.2815l1.2807-.43295c3.4048.65871 4.6276 2.3016 3.8577 2.4111l-.25666.19185.25666-.14259c1.2096.65871 2.5123 1.452 3.2822 2.66l-.88147.60926zm2.4863-1.4933c-1.0968-1.3191-1.6994-1.9131-3.347-2.5718l.63518-.27222-.08555.0285c-.56746-.74997-1.5017-1.5991-4.0885-2.1881l1.4985-.32407c1.8849.22068 3.9072 2.0728 3.2485 2.2918l-.30074.1011c1.1913.65043 2.0116 1.078 3.2096 2.4966l-.77.43816zm-8.0188-.12185c-1.4286-1.2096-3.0748-1.7082-5.2733-1.9289l1.2729-.76481c2.3063.11117 5.2641 1.7591 4.7133 2.31l-.71295.3837zm10.28-1.0215c-.76989-.98891-1.4284-1.6522-2.857-2.3126l.7648-.32407c1.2096.65872 1.5414.98766 2.8622 2.4163l-.76999.22037z" fill="#ff5910"/><path d="m68.162 543.06c-.2634-.003-.59608-.0861-.96443-.30592-1.1764-.69688-2.0905-1.91-2.5485-2.8674 1.1764.22234 2.9226.91756 3.8137 2.0326.2157.27045.32926.52494.32926.72073 0 .0946-.02562.17546-.08037.23851-.09292.1062-.28622.18418-.54962.18148zm21.036-2.2503c-.8346-1.0055-1.715-2.1094-2.7222-3.684.1626-.17588.70258-.74925.70258-.74925l-.38629-.39148c-.58903-.59234-.91258-1.1855-.91258-1.68 0-.10121.01586-.20004.04407-.29295.0896-.30365.31619-.47942.50036-.51592.57908-.12279 1.1184-.0106 1.5996.33444.76325.54754 1.2635 1.5998 1.3481 2.31.06305.53427.09074 1.028.09074 1.4959 0 .94078-.10567 1.775-.21518 2.6444 0 0-.02769.31816-.04926.52888z" fill="#002d72"/></g></svg>